# xmcd
#
# Track frame offsets: 
#        150
#        10114
#        28449
#        50906
#        68718
#        73321
#        92085
#        108493
#
# Disc length: 1695 seconds
#
# Revision: 0
# Processed by: cddbd v1.5.1PL2 Copyright (c) Steve Scherf et al.
# Submitted via: ExactAudioCopy v0.95b4
#
DISCID=74069d08
DTITLE=Cab - Lydbilleder
DYEAR=2005
DGENRE=Hip-Hop
TTITLE0=Ferniseringen
TTITLE1=Hvem Er Du?
TTITLE2=Devisen
TTITLE3=Det Høje C
TTITLE4=Luxxxus
TTITLE5=Altid Alsidig
TTITLE6=Hvad Vil Du?
TTITLE7=Lang Fra Mit Sind (Feat. Pede B)
EXTD=
EXTT0=
EXTT1=
EXTT2=
EXTT3=
EXTT4=
EXTT5=
EXTT6=
EXTT7=
PLAYORDER=
